Coordinates
version=1
nRows=17
nColumns=24
inDegrees=yes

Units are S.I. units (second, meters, Newtons, ...)
Angles are in degrees.

endheader
time	pelvis_tilt	pelvis_list	pelvis_rotation	pelvis_tx	pelvis_ty	pelvis_tz	hip_flexion_r	hip_adduction_r	hip_rotation_r	knee_angle_r	ankle_angle_r	subtalar_angle_r	mtp_angle_r	hip_flexion_l	hip_adduction_l	hip_rotation_l	knee_angle_l	ankle_angle_l	subtalar_angle_l	mtp_angle_l	lumbar_extension	lumbar_bending	lumbar_rotation
      0.45800000	     -8.09117992	      4.57830426	     -1.25802250	     -0.82848277	      1.02610349	      0.26384534	     37.10804264	     -3.45928569	      2.42715162	     -6.27597630	     11.04943896	     -3.85666120	      8.88163301	     -9.74077733	      6.01401948	      3.91546054	     -2.37074960	     17.60555333	      3.72602791	      2.54654432	    -13.07329067	     -4.08508226	     -4.90614264
      0.46216667	     -8.11487073	      4.58996816	     -1.08751359	     -0.82271814	      1.02520204	      0.26397059	     37.02847788	     -3.52158278	      2.69573927	     -6.56706755	     10.98271210	     -3.96226235	      8.88505746	     -9.86994389	      5.98638362	      3.96838095	     -2.76628103	     17.75571487	      3.92934184	      2.58046235	    -13.03758017	     -3.96594509	     -4.99377622
      0.46633333	     -8.15792145	      4.58818542	     -0.91585498	     -0.81688944	      1.02431963	      0.26410135	     36.94871701	     -3.57020364	      2.93772332	     -6.85065369	     10.87979074	     -4.07470199	      8.89672117	     -9.94830019	      5.94146125	      3.93408575	     -3.23221804	     17.92791638	      4.22882589	      2.64902478	    -12.96950955	     -3.82672563	     -5.04153121
      0.47050000	     -8.16812135	      4.58932801	     -0.74533272	     -0.81103802	      1.02352648	      0.26422596	     36.83871231	     -3.62543011	      3.09263196	     -7.16996486	     10.78025791	     -4.10676736	      8.90223501	    -10.08615712	      5.90058280	      4.03421056	     -3.64589243	     18.03816173	      4.33683041	      2.68165870	    -12.93661689	     -3.70837803	     -5.03750985
      0.47466667	     -8.20375955	      4.57116521	     -0.58611718	     -0.80515567	      1.02273178	      0.26440483	     36.72605444	     -3.64770107	      3.32138111	     -7.44824662	     10.55928928	     -4.30177101	      8.93083778	    -10.13216538	      5.83082874	      3.86122423	     -4.19681691	     18.21022544	      4.85893219	      2.81628537	    -12.87932320	     -3.53459928	     -5.13625266
      0.47883333	     -8.24706233	      4.55138650	     -0.42268704	     -0.79921639	      1.02197847	      0.26456424	     36.62427672	     -3.67447424	      3.44711439	     -7.75426877	     10.33607470	     -4.40168870	      8.97151480	    -10.18020905	      5.75930164	      3.76918508	     -4.73061375	     18.33937657	      5.23720007	      2.98257169	    -12.80075355	     -3.38125008	     -5.13508136
      0.48300000	     -8.29073686	      4.52360927	     -0.25715251	     -0.79325817	      1.02128353	      0.26472189	     36.51307202	     -3.69493804	      3.54726608	     -8.05581237	     10.05986367	     -4.53242626	      9.01731289	    -10.22021531	      5.67657499	      3.68388841	     -5.27602975	     18.43062548	      5.59636421	      3.17172626	    -12.72375377	     -3.20705587	     -5.16944556
      0.48716667	     -8.32607502	      4.49135190	     -0.10189294	     -0.78729050	      1.02065108	      0.26491349	     36.39376304	     -3.70503669	      3.61763748	     -8.36569558	      9.72620064	     -4.67103170	      9.07617200	    -10.24420827	      5.58647425	      3.54982838	     -5.87253337	     18.52454616	      6.01620103	      3.41163275	    -12.65825550	     -3.03833347	     -5.17332472
      0.49133333	     -8.36055234	      4.44169761	      0.05211759	     -0.78128462	      1.02008439	      0.26509421	     36.26625075	     -3.70127993	      3.63745562	     -8.67204649	      9.36921965	     -4.80065911	      9.13162904	    -10.26184005	      5.47756842	      3.43349642	     -6.48457782	     18.57692017	      6.38344393	      3.64393032	    -12.58333758	     -2.83698761	     -5.16146778
      0.49550000	     -8.40640175	      4.40973467	      0.18918610	     -0.77529345	      1.01955293	      0.26533067	     36.16714670	     -3.70159235	      3.65604142	     -9.00546768	      8.93467739	     -4.94934331	      9.21166790	    -10.23644023	      5.38490675	      3.24469211	     -7.15252892	     18.62397309	      6.85256184	      3.98796849	    -12.50817740	     -2.68281564	     -5.14625138
      0.49966667	     -8.44171045	      4.35369085	      0.33723902	     -0.76924953	      1.01913226	      0.26550065	     36.05787552	     -3.69665607	      3.54137876	     -9.35609362	      8.51551675	     -4.97744055	      9.22148386	    -10.25860657	      5.27636639	      3.28555653	     -7.74932066	     18.54475569	      6.93594517	      4.06360192	    -12.42017026	     -2.48717674	     -5.08867040
      0.50383333	     -8.50871521	      4.27954266	      0.45435478	     -0.76321698	      1.01869553	      0.26580384	     35.97630907	     -3.64307276	      3.56046297	     -9.69107222	      8.00553624	     -5.24770913	      9.30448965	    -10.13787102	      5.12704577	      2.89018455	     -8.56320980	     18.61031250	      7.67357293	      4.48712772	    -12.32215421	     -2.26748609	     -5.07498191
      0.50800000	     -8.57074857	      4.19721224	      0.57201869	     -0.75715985	      1.01835061	      0.26607543	     35.90814729	     -3.59127156	      3.46682341	    -10.06986132	      7.51435239	     -5.38592854	      9.39382502	    -10.03522173	      4.97692368	      2.66246043	     -9.34693352	     18.57030615	      8.11918595	      4.97639518	    -12.21143893	     -2.03889506	     -5.00308031
      0.51216667	     -8.62615252	      4.08935914	      0.68380870	     -0.75107469	      1.01809701	      0.26635314	     35.83446787	     -3.51559390	      3.34524539	    -10.46122109	      7.05294839	     -5.52876776	      9.46543123	     -9.92279698	      4.79950919	      2.43951262	    -10.15913540	     18.49006095	      8.49241240	      5.42868896	    -12.09921374	     -1.76822329	     -4.91676066
      0.51633333	     -8.66101474	      4.00340046	      0.77254047	     -0.74502799	      1.01793829	      0.26666361	     35.77409665	     -3.45347315	      3.19063194	    -10.91157360	      6.56802621	     -5.58529905	      9.96299599	     -9.82485023	      4.65145201	      2.26538446	    -10.97339043	     18.26284577	      8.76166908	      8.78918233	    -12.04056872	     -1.54783952	     -4.82092898
      0.52050000	     -8.73561863	      3.89115862	      0.85133192	     -0.73894470	      1.01778859	      0.26700588	     35.75727549	     -3.35827364	      3.06280991	    -11.37702904	      6.10680563	     -5.72514596	      9.95115618	     -9.65158454	      4.47372129	      2.04676606	    -11.85895183	     18.10027498	      9.08631327	      8.86203402	    -11.90758391	     -1.28681198	     -4.70846659
      0.52466667	     -8.77872818	      3.77680454	      0.90802533	     -0.73287435	      1.01775005	      0.26739303	     35.73056084	     -3.25320283	      2.90949836	    -11.88869298	      5.66245109	     -5.80748696	      9.93942136	     -9.48453816	      4.29132380	      1.77995255	    -12.79405809	     17.91068898	      9.46782073	      9.01193004	    -11.82596542	     -1.03135955	     -4.57823446
